PathFileType	4	(X/Y/Z)	Run_400 01
DataRate	CameraRate	NumFrames	NumMarkers	Units	OrigDataRate	OrigDataStartFrame	OrigNumFrames
120	120	8	41	mm	120	101	125
Frame#	Time	LASI			RASI			LPSI			RPSI			RTH1			RTH3			LTH1			LTH2			LTH3			RTB1			RTB2			RTB3			LTB1			LTB2			LTB3			RCAL			RTOE			RMT5			LCAL			LTOE			LMT5			LACR			RACR			CLAV			C7			RUA1			RUA2			RUA3			RLEL			RMEL			LUA1			LUA2			LUA3			LLEL			LMEL			RFAsuperior			RFAradius			RFAulna			LFAsuperior			LFAradius			LFAulna			
		X1	Y1	Z1	X2	Y2	Z2	X3	Y3	Z3	X4	Y4	Z4	X5	Y5	Z5	X6	Y6	Z6	X7	Y7	Z7	X8	Y8	Z8	X9	Y9	Z9	X10	Y10	Z10	X11	Y11	Z11	X12	Y12	Z12	X13	Y13	Z13	X14	Y14	Z14	X15	Y15	Z15	X16	Y16	Z16	X17	Y17	Z17	X18	Y18	Z18	X19	Y19	Z19	X20	Y20	Z20	X21	Y21	Z21	X22	Y22	Z22	X23	Y23	Z23	X24	Y24	Z24	X25	Y25	Z25	X26	Y26	Z26	X27	Y27	Z27	X28	Y28	Z28	X29	Y29	Z29	X30	Y30	Z30	X31	Y31	Z31	X32	Y32	Z32	X33	Y33	Z33	X34	Y34	Z34	X35	Y35	Z35	X36	Y36	Z36	X37	Y37	Z37	X38	Y38	Z38	X39	Y39	Z39	X40	Y40	Z40	X41	Y41	Z41	

95	1.125	960.554119	953.584306	-428.054309	937.181673	957.7531739999999	-198.076316	795.25208	993.73945	-378.087966	775.0075430000001	998.0258239999999	-279.981971	901.1207000000001	797.9733	-142.089696	995.7031500000001	562.367193	-209.060715	916.922772	765.266525	-494.091008	965.128909	655.663127	-484.756742	898.4714750000001	548.879694	-474.848977	1051.61686	353.478178	-302.824337	1007.727957	297.338032	-238.5546	1003.543595	238.290356	-313.344655	801.2107559999999	431.850379	-400.945931	740.3844350000001	502.310684	-467.358328	645.374809	498.792281	-392.734899	853.155844	104.152587	-325.572769	1057.994197	71.259587	-351.645576	1037.88125	62.362367	-255.415807	553.569107	636.58869	-372.76797	461.535438	449.837437	-375.259939	453.864934	479.89189	-462.198755	972.35443	1426.34528	-484.096506	898.117598	1406.444067	-93.363423	993.977544	1407.777592	-256.152201	879.504562	1473.677638	-311.461234	810.278471	1287.316869	-55.518515	741.283906	1302.339691	-81.00209	747.043995	1223.700474	-34.818471	696.159865	1173.521523	-20.780295	671.594594	1161.662668	-98.546541	906.887322	1312.156476	-558.038675	832.285577	1282.289171	-567.215827	887.84626	1223.512482	-577.614166	832.4439190000001	1167.556888	-615.871907	773.94609	1173.296934	-549.113724	775.141645	1073.187174	-31.06653	839.765365	988.722158	-93.352586	798.066612	952.527524	-49.573851	924.954074	1091.592803	-561.833304	984.901648	1065.192769	-450.303806	988.919833	1020.010052	-502.515947	
96	1.133333	956.505628	949.051437	-428.365788	933.470253	954.676137	-197.003158	792.051901	991.029396	-378.743663	772.133345	995.2326890000001	-280.983493	893.8984380000001	793.884866	-141.71819	984.956766	556.402299	-208.930875	920.764909	763.290254	-494.277949	977.828517	657.38169	-486.200723	917.505618	547.130466	-477.13698	1033.453761	345.748061	-301.153312	985.02935	292.31545	-237.645109	978.711366	233.731419	-312.716235	826.745935	429.093216	-402.47773	765.4339649999999	497.901322	-470.210599	670.527628	493.911334	-395.384531	820.622916	104.875915	-325.385201	1024.893577	70.405514	-351.147251	1004.839717	61.838686	-255.127418	574.195241	631.808177	-376.637271	489.020993	442.111075	-376.731755	481.749255	469.77005	-464.333851	969.149055	1422.523078	-484.904919	902.963572	1400.469832	-92.473769	994.701543	1403.323959	-257.626915	879.710355	1470.443085	-310.28536	819.757015	1278.184271	-54.418256	749.229379	1291.929757	-76.34744499999999	758.887186	1212.567486	-32.106644	710.470048	1160.256661	-16.297614	681.812111	1148.251225	-92.428715	900.427497	1309.446034	-557.632352	825.0490579999999	1280.012238	-563.708953	880.102546	1221.464059	-577.454929	822.8625929999999	1165.361852	-614.587352	766.622538	1170.951805	-546.908262	792.798172	1063.265468	-30.542122	858.043353	982.957763	-95.947343	819.448928	944.600199	-50.778402	913.463227	1083.512959	-565.098219	974.492313	1051.319622	-457.088468	974.707431	1006.864816	-510.271669	
97	1.141667	952.652217	946.338578	-428.588688	930.332855	952.307577	-196.554123	789.177266	989.5610349999999	-378.579063	769.538426	993.699778	-281.117431	886.407548	790.3918619999999	-141.766299	970.877264	550.20563	-209.67928	923.535952	762.680756	-494.393458	990.569397	661.471053	-487.301531	937.287266	547.83775	-478.618038	1013.041128	336.87744	-299.512259	960.258474	285.604225	-237.660491	951.861978	228.347364	-312.295342	853.27435	427.794058	-403.936884	790.284837	494.016248	-472.405381	695.515013	488.461101	-397.512189	787.942145	105.519342	-325.215764	991.889012	69.422721	-350.903034	971.682783	61.204908	-255.091766	592.485914	624.784265	-380.206907	517.465411	431.207952	-378.154482	509.831073	456.622081	-466.156132	965.826232	1419.854375	-485.627987	907.628195	1396.598678	-92.15484600000001	995.3809649999999	1399.96678	-259.205677	879.525786	1467.986998	-309.367057	828.779763	1271.700304	-53.388707	757.241876	1283.688735	-73.23526200000001	770.995501	1203.897375	-30.003561	725.2086880000001	1149.394458	-12.714687	693.309808	1136.977114	-87.577389	894.10275	1307.91523	-557.384645	818.155815	1279.688042	-560.070772	872.378513	1221.037399	-577.504175	813.287053	1165.162914	-613.581445	759.542267	1170.429211	-545.059575	811.095374	1056.222958	-31.01093	877.15196	979.9594540000001	-99.16436400000001	841.866978	939.356795	-52.917234	901.654205	1077.718538	-568.3516519999999	963.25044	1039.528974	-464.015015	959.444641	996.025118	-517.993067	
98	1.15	949.09774	945.470413	-428.704699	927.764492	950.442947	-196.939222	786.441555	988.887784	-377.539084	767.124811	993.0807610000001	-280.325006	879.661747	788.112088	-141.846211	955.117426	544.6589739999999	-210.533358	925.141396	763.347721	-494.381551	1002.750059	667.81092	-487.95341	957.2590729999999	551.256615	-479.485555	990.4936719999999	328.458464	-298.860233	934.789233	278.674298	-238.653973	923.625405	223.308423	-312.126637	880.38021	428.459983	-405.020798	814.482767	490.859805	-473.797111	719.838869	482.729901	-399.003928	755.297099	106.332026	-325.124527	958.96003	68.731273	-350.783227	938.471097	60.829964	-255.102833	608.52665	615.330554	-383.443913	546.739018	417.425503	-379.537169	538.04455	440.93869	-467.746101	962.234516	1418.273968	-486.330425	911.942945	1394.818663	-92.12183400000001	996.085315	1397.856149	-260.851613	879.093534	1466.495457	-308.580256	837.136675	1267.713185	-52.295015	764.888331	1277.2579	-71.15793499999999	782.899101	1197.60915	-28.405331	739.801486	1141.182118	-10.039712	705.979825	1128.14773	-84.10216800000001	887.696165	1307.608322	-557.338793	811.3970430000001	1281.030522	-556.971317	864.377379	1221.784267	-577.667465	803.528252	1166.901197	-613.008318	752.3253	1171.908869	-543.619942	829.337551	1052.299489	-32.453248	896.615037	980.097079	-102.998609	864.7079680000001	937.192091	-56.152809	889.326535	1074.257161	-571.720892	951.247811	1030.478593	-470.676161	943.5211420000001	988.0636009999999	-525.3309	
99	1.158333	945.9864219999999	946.240127	-428.905278	925.687644	949.194599	-197.863493	783.900166	988.91862	-375.879403	764.913891	993.264989	-278.813232	874.3706550000001	787.283521	-141.698161	939.028414	540.274298	-210.866045	925.9475660000001	765.263641	-494.216925	1013.910102	676.356931	-488.081153	976.700975	557.616868	-479.955628	966.0864790000001	321.67486	-299.28654	909.0261829999999	272.946528	-240.085346	894.622137	219.382332	-311.977114	907.366161	431.344675	-405.402253	837.784814	488.633186	-474.347765	743.361683	476.737628	-399.86161	722.6823439999999	107.373515	-325.043503	926.000091	68.470308	-350.615003	905.201826	60.777548	-255.005367	622.658336	603.246311	-386.318579	576.73312	401.186799	-380.769221	566.477389	423.141404	-469.097235	958.354649	1417.726468	-486.97859	915.912973	1394.883503	-92.183269	996.784661	1397.104932	-262.575733	878.619693	1466.201968	-307.8406	844.872988	1265.869263	-51.260491	771.996732	1272.360944	-69.520826	794.216014	1193.551234	-27.243177	753.800568	1135.517659	-8.206313	719.240508	1121.755302	-81.812865	881.076295	1308.669745	-557.442727	804.545419	1283.778061	-554.872471	856.002504	1223.588478	-577.9671070000001	793.435639	1170.369938	-612.887608	744.6173659999999	1175.346803	-542.5976450000001	846.934978	1051.322287	-34.720578	915.890761	983.496416	-107.412419	887.296883	938.22246	-60.553312	876.327646	1073.055383	-575.20299	938.60826	1024.691783	-476.796867	927.464388	983.41004	-531.982697	
100	1.166667	943.496427	948.352026	-429.347793	923.901284	948.936239	-198.777269	781.820755	989.855431	-373.97782	762.889913	994.455819	-276.839047	870.558168	787.546679	-141.423033	922.943576	537.129381	-210.644878	926.6017900000001	768.4633239999999	-493.875119	1023.74611	686.898732	-487.75468	994.921589	566.7257	-480.076943	940.189538	316.922943	-300.226778	882.627941	269.202707	-241.275569	865.200171	216.784184	-311.640361	933.456412	436.231306	-404.873843	860.095688	487.417033	-474.145102	766.361832	470.301596	-400.179685	689.915917	108.547697	-324.878794	892.851668	68.49819599999999	-350.322143	871.802963	60.866206	-254.800243	635.42561	588.427294	-388.736446	607.494361	383.006367	-381.70387	595.358043	403.610842	-470.09551	954.268143	1418.231888	-487.558565	919.692032	1396.48067	-92.331198	997.384721	1397.749886	-264.421661	878.179847	1467.140923	-307.173907	852.174369	1265.79067	-50.526064	778.66604	1269.055826	-67.97188199999999	804.734159	1191.581643	-26.462442	766.96423	1132.107508	-7.106726	732.232082	1117.613643	-80.369421	874.249955	1311.234541	-557.635587	797.496994	1287.855071	-553.831562	847.322056	1226.644356	-578.4687280000001	782.997558	1175.380687	-613.086877	736.28016	1180.570728	-541.944924	863.550691	1052.917836	-37.541976	934.485104	990.030811	-112.274316	909.058617	942.273826	-66.017489	862.811987	1074.146314	-578.610957	925.593884	1022.385548	-482.207537	911.852663	982.27034	-537.781849	
101	1.175	941.768488	951.565303	-430.009272	922.241552	949.996617	-199.253552	780.48216	991.916656	-372.113804	761.032061	996.908486	-274.556936	867.74141	788.275773	-141.403043	906.307087	535.147567	-210.365257	927.703256	773.0196989999999	-493.344085	1032.134594	698.921375	-487.158579	1011.477035	577.877675	-479.738229	913.104155	314.031232	-301.054405	855.112857	267.522359	-241.8583	835.401668	215.447291	-311.149563	958.136203	442.47459	-403.419804	881.344272	487.072506	-473.346309	789.233898	463.249523	-400.070855	656.791416	109.800503	-324.567538	859.379773	68.63958599999999	-349.942134	838.193618	60.897528	-254.587455	647.500686	570.927281	-390.542842	639.2669509999999	363.474205	-382.23298	625.020991	382.765457	-470.598092	950.074708	1419.894985	-488.144073	923.447911	1399.366387	-92.68087300000001	997.8033370000001	1399.75013	-266.431627	877.689652	1469.126673	-306.675584	859.22834	1267.169995	-50.252371	785.137192	1267.620081	-66.46970899999999	814.43435	1191.540213	-25.99358	779.232848	1130.653544	-6.595719	744.177441	1115.51393	-79.439583	867.3292709999999	1315.348514	-557.894983	790.314348	1293.347897	-553.5541459999999	838.4700759999999	1231.213855	-579.167013	772.36643	1181.849779	-613.369805	727.442138	1187.406741	-541.520867	879.0722	1056.740374	-40.616332	951.999245	999.359584	-117.379202	929.598853	949.01015	-72.247089	849.305569	1077.702501	-581.649462	912.635932	1023.421602	-486.778774	897.191445	984.544357	-542.688036	
102	1.183333	940.841642	955.7354779999999	-430.727341	920.993857	952.315868	-199.230215	780.002267	995.129655	-370.353393	759.661848	1000.559516	-272.060236	865.411013	789.095147	-142.040413	888.352754	534.397678	-210.635729	929.565334	778.981183	-492.689965	1039.172813	711.732302	-486.461583	1026.265219	590.159733	-478.838809	885.002511	312.724562	-301.497954	826.301325	267.641084	-241.909038	805.164747	215.351259	-310.777393	981.305457	449.282218	-401.239706	901.442334	487.258396	-472.092232	812.075519	455.562853	-399.615445	623.311824	111.364605	-324.053463	825.590629	68.85654599999999	-349.574641	804.382849	60.813122	-254.461372	659.595974	550.9401779999999	-391.584944	672.36725	343.266758	-382.29915	655.845293	361.109556	-470.536741	945.8284	1422.840303	-488.841545	927.239209	1403.390428	-93.343631	998.0154	1403.007397	-268.624124	877.032969	1471.929949	-306.42116	866.142512	1269.791662	-50.426631	791.620038	1268.22629	-65.122443	823.451114	1193.213172	-25.753126	790.6544	1130.951147	-6.485989	754.70547	1115.293104	-78.78845	860.460878	1320.959945	-558.220655	783.171656	1300.348693	-553.614586	829.601238	1237.394495	-579.940905	761.79962	1189.748316	-613.491341	718.397322	1195.73743	-541.082367	893.476115	1062.555013	-43.734072	968.110535	1010.988346	-122.544869	948.6845479999999	958.0969710000001	-78.814243	836.489388	1083.841078	-584.056638	900.240504	1027.405194	-490.428578	883.790347	989.8150450000001	-546.710413	
